ply
format ascii 1.0
element vertex 336
property float x
property float y
property float z
property uchar red
property uchar green
property uchar blue
element face 672
property list uchar int vertex_indices
end_header
33.9219 34.9506 34.1853 45 156 219
33.6669 35.1348 34.4135 45 156 219
33.7004 34.8200 34.4390 45 156 219
33.9821 34.8620 34.4398 45 156 219
33.9554 35.0441 34.4381 45 156 219
32.0110 37.2001 34.0934 45 156 219
31.8089 37.0683 34.3266 45 156 219
31.9989 36.6588 34.3424 45 156 219
32.2379 36.8406 34.4100 45 156 219
31.9016 37.6487 34.0907 45 156 219
31.7011 37.6865 34.4482 45 156 219
32.1196 37.5596 34.3105 45 156 219
31.9358 37.9165 34.3519 45 156 219
31.0409 34.2939 34.9245 45 156 219
30.9084 34.2821 35.1506 45 156 219
31.0922 33.9764 35.3845 45 156 219
31.2811 34.2591 35.2901 45 156 219
30.9819 34.6526 34.9739 45 156 219
30.9387 34.6329 35.2722 45 156 219
31.0649 34.6559 34.9873 45 156 219
33.0662 35.1691 34.6700 45 156 219
32.4835 35.0090 35.1497 45 156 219
33.2003 34.7591 35.0026 45 156 219
33.7662 34.5826 35.1527 45 156 219
34.0637 34.7918 35.1566 45 156 219
31.0052 34.8330 35.0429 45 156 219
32.0821 35.4967 35.0292 45 156 219
32.3464 35.9234 34.7296 45 156 219
31.8282 36.0224 35.0435 45 156 219
33.1146 35.6834 34.7816 45 156 219
33.6501 35.3679 35.1557 45 156 219
33.1901 35.8618 35.0413 45 156 219
31.7197 36.9329 35.0566 45 156 219
32.7214 36.2438 34.9875 45 156 219
32.3376 37.0041 34.9850 45 156 219
31.8102 37.5650 35.1436 45 156 219
32.1023 37.6961 34.8931 45 156 219
31.8923 37.9150 34.7969 45 156 219
30.4671 29.2613 35.9126 45 156 219
30.0970 29.3321 36.0339 45 156 219
30.3892 28.8967 36.2454 45 156 219
30.8729 28.8138 36.0958 45 156 219
31.2213 29.2956 35.8534 45 156 219
31.4366 28.8910 36.1283 45 156 219
35.9951 29.3132 36.0349 45 156 219
35.5839 29.3782 36.0658 45 156 219
35.7774 28.8571 36.2114 45 156 219
36.0964 28.9071 36.3968 45 156 219
30.3149 29.8914 35.8884 45 156 219
30.0610 29.7788 36.0609 45 156 219
31.0525 29.9854 35.7441 45 156 219
31.9118 29.3358 35.9755 45 156 219
32.0778 30.0048 35.7619 45 156 219
32.6761 29.5701 36.0158 45 156 219
33.1450 30.2370 35.8319 45 156 219
33.4013 29.8442 36.0582 45 156 219
35.9030 30.1356 35.9082 45 156 219
35.3367 30.0718 35.9657 45 156 219
36.2770 29.7416 36.2804 45 156 219
30.2948 30.2577 36.0273 45 156 219
30.8747 30.6070 35.8953 45 156 219
30.6593 30.7384 36.3838 45 156 219
31.7584 30.7573 35.8103 45 156 219
32.7656 30.8186 35.8085 45 156 219
33.8937 30.3065 35.9706 45 156 219
33.9753 30.9438 35.8518 45 156 219
34.6521 30.3467 35.9896 45 156 219
35.2051 30.9060 35.8043 45 156 219
35.9395 31.0693 35.8594 45 156 219
36.3594 30.6984 36.2523 45 156 219
31.3751 31.1813 36.2507 45 156 219
32.2911 31.2864 36.2004 45 156 219
33.1672 31.2957 36.0869 45 156 219
33.9206 31.5844 36.1621 45 156 219
34.7774 31.6618 35.9142 45 156 219
34.4263 31.9698 36.2523 45 156 219
35.5936 31.7122 35.9331 45 156 219
36.1129 31.5648 36.2064 45 156 219
35.0133 32.1357 36.2705 45 156 219
35.6867 32.0756 36.3772 45 156 219
30.7087 34.1471 35.8986 45 156 219
31.0524 33.7263 36.1531 45 156 219
31.6745 33.9036 35.8828 45 156 219
31.9491 34.4176 35.6866 45 156 219
32.3560 34.1300 36.2781 45 156 219
34.0180 34.2784 35.7288 45 156 219
33.8178 34.2681 36.1158 45 156 219
34.1255 33.9726 36.3660 45 156 219
34.2582 34.3021 36.1758 45 156 219
31.0524 34.5009 35.8954 45 156 219
31.0530 34.6955 35.2102 45 156 219
31.5605 35.0364 35.9737 45 156 219
31.9571 35.1228 35.3532 45 156 219
33.0669 34.5429 35.9137 45 156 219
34.0370 34.9049 35.7974 45 156 219
31.7896 35.9226 35.9797 45 156 219
32.4878 36.3252 35.6928 45 156 219
33.0402 35.8919 35.3751 45 156 219
32.9113 35.6144 36.0250 45 156 219
33.5976 35.1631 36.1325 45 156 219
31.8867 36.8379 35.7532 45 156 219
32.1596 37.1271 35.5685 45 156 219
31.9762 37.2497 35.6708 45 156 219
31.9921 37.6660 35.2650 45 156 219
32.2886 27.4131 36.8283 45 156 219
31.7684 27.4233 37.2228 45 156 219
32.3107 27.0552 37.1130 45 156 219
33.0291 26.9957 37.0622 45 156 219
33.3258 27.2966 36.7776 45 156 219
33.9814 26.9938 37.0264 45 156 219
34.2726 27.2930 36.7790 45 156 219
34.7146 27.0565 36.9830 45 156 219
35.0758 27.3999 36.8530 45 156 219
35.1208 27.1986 37.0385 45 156 219
31.2514 28.2446 36.6486 45 156 219
30.8600 28.3268 37.1613 45 156 219
31.1861 27.9000 37.2094 45 156 219
32.2316 28.2216 36.5405 45 156 219
33.0737 28.0729 36.5683 45 156 219
34.0457 28.0104 36.5708 45 156 219
34.8495 27.8960 36.6244 45 156 219
35.5289 27.6520 37.1474 45 156 219
35.6324 28.1936 36.6528 45 156 219
36.0586 28.3733 37.1466 45 156 219
30.1608 29.3784 36.3426 45 156 219
30.5356 28.9101 36.8602 45 156 219
32.0657 28.8842 36.2823 45 156 219
33.0529 29.0481 36.3255 45 156 219
34.0082 28.9387 36.4094 45 156 219
35.0202 28.7490 36.3877 45 156 219
36.3166 29.1634 36.9026 45 156 219
30.2080 30.0179 36.2806 45 156 219
30.4252 29.8956 36.9622 45 156 219
34.0168 29.7892 36.2021 45 156 219
34.8543 29.6410 36.2030 45 156 219
36.4325 29.9801 37.0229 45 156 219
30.6459 31.0557 37.3165 45 156 219
36.3439 31.0888 37.0945 45 156 219
31.1951 31.4922 36.9370 45 156 219
32.1052 31.6372 37.0197 45 156 219
33.0864 31.6530 36.7438 45 156 219
33.8761 31.9205 36.6142 45 156 219
33.5689 32.0406 37.2705 45 156 219
36.0285 31.8074 36.6485 45 156 219
36.0703 31.7630 37.1768 45 156 219
35.7291 32.1955 37.1475 45 156 219
30.1177 33.2235 36.8992 45 156 219
29.7334 33.3720 37.2410 45 156 219
30.3122 32.8318 37.2529 45 156 219
30.7736 32.8014 37.0561 45 156 219
30.9005 33.2843 36.7384 45 156 219
31.3876 33.1205 37.3210 45 156 219
34.2777 32.2402 36.8658 45 156 219
35.0004 32.5094 37.0687 45 156 219
28.3901 33.9487 36.9898 45 156 219
28.1195 33.9967 37.0057 45 156 219
28.3747 33.9674 37.0484 45 156 219
28.9733 33.8481 37.1352 45 156 219
29.1511 33.7893 36.9301 45 156 219
30.1064 33.8167 36.6273 45 156 219
31.7571 33.7042 36.6898 45 156 219
32.3867 34.2068 36.8682 45 156 219
33.9970 34.0455 36.7352 45 156 219
34.3233 33.7888 37.0823 45 156 219
34.6873 33.8127 36.8526 45 156 219
34.9696 34.3734 36.8388 45 156 219
35.3101 33.9304 37.3358 45 156 219
28.4008 34.0044 36.9814 45 156 219
29.0851 34.0607 36.9690 45 156 219
30.1100 34.3608 37.0603 45 156 219
31.0312 34.6292 36.7907 45 156 219
31.6317 34.9338 36.8743 45 156 219
32.8372 34.5336 36.6646 45 156 219
34.1762 34.3485 36.7124 45 156 219
33.8172 34.6840 36.2896 45 156 219
33.2498 34.8773 36.6132 45 156 219
34.6988 34.8424 37.2945 45 156 219
35.1098 34.8868 36.9301 45 156 219
35.6777 34.6138 37.1519 45 156 219
35.5955 34.9386 36.9989 45 156 219
35.9653 35.0685 37.3729 45 156 219
32.2067 35.4277 36.6195 45 156 219
32.1677 36.1209 36.1311 45 156 219
32.8801 35.1573 36.7196 45 156 219
35.2890 35.3088 37.1994 45 156 219
35.8095 35.3580 37.3007 45 156 219
32.0946 36.7586 35.9289 45 156 219
32.1902 27.1521 37.3705 45 156 219
32.7871 27.1075 37.4580 45 156 219
33.7318 27.0897 37.4483 45 156 219
34.7423 27.1860 37.3169 45 156 219
30.9987 28.2212 37.5650 45 156 219
31.4251 27.8951 37.8505 45 156 219
32.2085 27.5010 38.0901 45 156 219
33.2733 27.3550 38.1190 45 156 219
34.2602 27.3857 38.0580 45 156 219
35.1501 27.6098 37.8480 45 156 219
35.7613 27.9777 37.5805 45 156 219
35.5645 28.0257 38.2854 45 156 219
30.6603 28.9813 37.7000 45 156 219
31.0331 28.4728 38.2437 45 156 219
35.9824 28.3692 37.9162 45 156 219
36.2791 29.0460 37.8512 45 156 219
30.4130 30.1072 38.0430 45 156 219
36.4029 30.0273 38.0003 45 156 219
30.4103 31.1105 38.2146 45 156 219
36.3723 30.8533 38.1400 45 156 219
31.0104 32.1978 37.4473 45 156 219
30.6303 31.8226 37.9275 45 156 219
31.7685 31.9490 37.4839 45 156 219
32.3868 31.9858 37.7755 45 156 219
32.9078 31.8818 37.6156 45 156 219
33.2677 32.1114 37.9854 45 156 219
35.9881 32.0051 37.5287 45 156 219
36.2055 31.6724 37.9380 45 156 219
30.1185 33.0576 37.5000 45 156 219
30.5709 32.6600 37.9680 45 156 219
31.8211 32.4337 38.0856 45 156 219
31.3027 33.2244 37.9431 45 156 219
34.0305 32.4839 37.8423 45 156 219
34.7848 33.2396 37.5082 45 156 219
34.4562 32.9921 38.1798 45 156 219
35.3655 33.0195 37.7296 45 156 219
35.8419 32.3449 38.0911 45 156 219
28.3854 34.0230 37.0401 45 156 219
29.0092 34.0493 37.1694 45 156 219
29.5976 34.0698 37.6302 45 156 219
30.1161 33.4124 37.8420 45 156 219
31.8512 34.1865 37.2487 45 156 219
31.3050 33.7838 37.7589 45 156 219
34.2336 34.1502 37.1745 45 156 219
34.6420 33.8318 37.9159 45 156 219
35.4381 33.9513 38.0093 45 156 219
29.1462 35.0070 38.0026 45 156 219
29.3767 34.6944 37.9747 45 156 219
29.2462 35.0003 37.9107 45 156 219
29.6833 34.8316 37.7835 45 156 219
30.1805 34.7808 37.8594 45 156 219
30.9165 34.4231 37.6592 45 156 219
32.2293 34.9122 37.0465 45 156 219
32.6801 34.7163 37.0055 45 156 219
34.8122 34.7973 37.9609 45 156 219
35.8004 34.6248 37.6847 45 156 219
35.9929 35.1788 37.8742 45 156 219
29.3312 35.1311 37.9755 45 156 219
29.7710 35.0301 38.0494 45 156 219
35.0943 35.6640 37.6235 45 156 219
34.9378 35.5538 37.9458 45 156 219
35.6164 35.7752 37.6750 45 156 219
35.9604 35.6128 37.7695 45 156 219
35.2675 35.9397 37.9785 45 156 219
35.6779 35.9200 38.0358 45 156 219
31.5824 28.1623 38.9022 45 156 219
32.2557 27.7635 39.2128 45 156 219
33.0639 27.5884 38.9936 45 156 219
34.0247 27.5718 38.9342 45 156 219
34.8959 27.7048 38.7238 45 156 219
35.4527 28.1207 39.1667 45 156 219
30.6419 29.2311 38.6461 45 156 219
31.0603 28.6875 38.8337 45 156 219
35.9484 28.5492 38.7096 45 156 219
36.2226 29.2101 38.8925 45 156 219
30.2042 29.9806 38.7202 45 156 219
30.0675 30.2371 38.9440 45 156 219
30.3329 29.7327 38.9949 45 156 219
36.2342 30.1298 38.9485 45 156 219
30.1318 30.6300 38.6637 45 156 219
30.0767 30.7260 38.9774 45 156 219
36.1874 31.1929 38.7817 45 156 219
30.2104 31.1347 38.8000 45 156 219
30.5998 31.7989 38.6561 45 156 219
32.7650 32.0940 38.1520 45 156 219
36.0639 31.9245 38.6801 45 156 219
31.1285 32.3827 38.6260 45 156 219
30.8645 33.1436 38.2051 45 156 219
31.8351 32.2014 38.8575 45 156 219
32.8866 32.2106 38.6530 45 156 219
33.8890 32.4365 38.7646 45 156 219
34.5750 32.9148 38.7553 45 156 219
35.7106 32.3854 38.8302 45 156 219
35.3433 33.0987 38.5445 45 156 219
30.0083 34.1168 38.1578 45 156 219
30.8136 33.9138 38.1388 45 156 219
34.9542 33.3213 38.6691 45 156 219
35.1117 34.1325 38.2908 45 156 219
29.4590 34.8802 38.1340 45 156 219
30.1606 34.6494 38.2194 45 156 219
35.1988 35.1692 38.2273 45 156 219
35.6538 34.8269 38.1243 45 156 219
35.2945 35.7937 38.2411 45 156 219
35.7390 35.5727 38.1381 45 156 219
31.9931 28.0056 39.6501 45 156 219
32.3766 27.9076 39.8336 45 156 219
33.0564 27.8277 39.7563 45 156 219
33.9856 27.8048 39.7123 45 156 219
34.8238 27.8600 39.5684 45 156 219
35.3806 28.2551 39.8097 45 156 219
31.1759 29.2068 39.2488 45 156 219
31.9713 28.4019 39.6736 45 156 219
32.2880 29.1280 39.6071 45 156 219
33.2697 29.1611 39.6974 45 156 219
32.7684 28.4841 39.8941 45 156 219
34.1972 29.2429 39.7720 45 156 219
33.6752 28.5928 39.9535 45 156 219
34.4069 28.8367 40.0031 45 156 219
35.8617 28.6825 39.5461 45 156 219
36.0204 29.2695 39.6174 45 156 219
30.4213 30.2413 39.1666 45 156 219
31.2274 30.2093 39.3758 45 156 219
32.0580 30.0404 39.4645 45 156 219
33.0537 30.0224 39.5311 45 156 219
34.0503 30.0259 39.5675 45 156 219
34.9012 29.2595 39.9163 45 156 219
35.0725 29.9387 39.6305 45 156 219
35.8502 29.8891 39.5175 45 156 219
35.5633 29.3179 39.8792 45 156 219
30.4125 31.1226 39.0834 45 156 219
31.0923 31.0134 39.3113 45 156 219
32.0233 30.9840 39.4053 45 156 219
33.0120 30.9869 39.4326 45 156 219
33.9950 30.9828 39.4604 45 156 219
34.9516 30.9344 39.4462 45 156 219
35.7782 30.7196 39.2990 45 156 219
31.1177 31.7964 39.0951 45 156 219
31.9910 31.7662 39.2087 45 156 219
32.9907 31.8045 39.2164 45 156 219
34.0628 31.9873 39.2437 45 156 219
34.8177 31.7668 39.3507 45 156 219
35.6589 31.7542 39.1606 45 156 219
35.0577 32.5830 39.0599 45 156 219
32.3204 28.1044 39.9538 45 156 219
33.0124 28.1094 40.0343 45 156 219
34.0238 28.2344 40.0697 45 156 219
34.8726 28.2151 40.0365 45 156 219
34.9797 28.8071 40.0951 45 156 219
35.6013 28.7732 39.9825 45 156 219
3 2 1 0
3 0 3 2
3 1 4 0
3 0 4 3
3 7 6 5
3 5 8 7
3 5 6 9
3 9 6 10
3 8 5 11
3 11 5 9
3 10 12 9
3 9 12 11
3 15 14 13
3 13 16 15
3 13 14 17
3 17 14 18
3 16 13 19
3 19 13 17
3 22 21 20
3 1 2 20
3 2 22 20
3 2 23 22
3 2 3 23
3 23 3 24
3 18 25 17
3 28 27 26
3 17 25 19
3 26 27 21
3 27 20 21
3 27 29 20
3 20 29 1
3 29 30 1
3 30 4 1
3 29 31 30
3 3 4 24
3 24 4 30
3 27 28 7
3 28 6 7
3 28 32 6
3 29 27 33
3 27 8 33
3 8 34 33
3 8 27 7
3 29 33 31
3 32 10 6
3 35 10 32
3 11 34 8
3 11 36 34
3 35 37 10
3 10 37 12
3 11 12 36
3 36 12 37
3 40 39 38
3 42 41 38
3 38 41 40
3 42 43 41
3 46 45 44
3 44 47 46
3 38 39 48
3 48 39 49
3 38 50 42
3 38 48 50
3 43 42 51
3 42 52 51
3 42 50 52
3 54 53 52
3 52 53 51
3 54 55 53
3 44 45 56
3 56 45 57
3 47 44 58
3 58 44 56
3 49 59 48
3 61 60 59
3 60 48 59
3 60 50 48
3 50 62 52
3 50 60 62
3 52 63 54
3 52 62 63
3 55 54 64
3 54 65 64
3 54 63 65
3 67 66 65
3 65 66 64
3 66 67 57
3 67 56 57
3 67 68 56
3 58 56 69
3 69 56 68
3 61 70 60
3 60 70 62
3 62 70 71
3 62 71 63
3 63 71 72
3 63 72 65
3 65 72 73
3 75 74 73
3 74 65 73
3 74 67 65
3 67 76 68
3 67 74 76
3 69 68 77
3 77 68 76
3 75 78 74
3 74 78 76
3 76 78 79
3 76 79 77
3 81 80 15
3 15 80 14
3 83 82 16
3 82 15 16
3 82 81 15
3 83 84 82
3 87 86 85
3 85 88 87
3 90 18 89
3 18 80 89
3 18 14 80
3 19 90 16
3 89 16 90
3 16 89 83
3 91 83 89
3 83 91 92
3 22 93 21
3 93 83 21
3 83 92 21
3 83 93 84
3 23 85 86
3 93 23 86
3 22 23 93
3 23 24 85
3 24 88 85
3 24 94 88
3 90 25 18
3 19 25 90
3 26 92 28
3 91 28 92
3 28 91 95
3 21 92 26
3 98 97 96
3 30 31 97
3 98 30 97
3 99 30 98
3 24 30 94
3 94 30 99
3 95 32 28
3 100 32 95
3 96 97 33
3 34 96 33
3 101 96 34
3 33 97 31
3 103 35 102
3 35 100 102
3 35 32 100
3 102 101 103
3 101 36 103
3 101 34 36
3 103 37 35
3 37 103 36
3 106 105 104
3 108 107 104
3 104 107 106
3 110 109 108
3 108 109 107
3 112 111 110
3 110 111 109
3 112 113 111
3 116 115 114
3 116 114 105
3 114 104 105
3 114 117 104
3 104 118 108
3 104 117 118
3 108 119 110
3 108 118 119
3 110 120 112
3 110 119 120
3 113 112 121
3 112 122 121
3 112 120 122
3 122 123 121
3 124 39 40
3 115 125 114
3 125 40 114
3 40 41 114
3 40 125 124
3 114 41 43
3 126 114 43
3 117 114 126
3 117 127 118
3 117 126 127
3 118 128 119
3 118 127 128
3 119 129 120
3 119 128 129
3 129 45 46
3 122 129 46
3 120 129 122
3 46 47 122
3 47 123 122
3 47 130 123
3 131 49 124
3 124 49 39
3 124 125 132
3 124 132 131
3 51 126 43
3 126 51 53
3 126 53 127
3 127 53 55
3 133 127 55
3 128 127 133
3 128 134 129
3 128 133 134
3 134 57 45
3 134 45 129
3 58 130 47
3 58 135 130
3 131 59 49
3 61 59 131
3 132 61 131
3 136 61 132
3 64 133 55
3 133 64 66
3 133 66 134
3 134 66 57
3 69 135 58
3 69 137 135
3 136 138 61
3 61 138 70
3 70 139 71
3 138 139 70
3 71 140 72
3 139 140 71
3 140 142 141
3 73 140 141
3 72 140 73
3 141 75 73
3 145 144 143
3 144 137 143
3 137 77 143
3 137 69 77
3 148 147 146
3 150 149 146
3 146 149 148
3 150 151 149
3 142 152 141
3 141 152 75
3 152 78 75
3 152 153 78
3 143 79 145
3 79 153 145
3 79 78 153
3 79 143 77
3 156 155 154
3 158 157 154
3 154 157 156
3 157 158 147
3 158 146 147
3 158 159 146
3 159 80 81
3 150 159 81
3 146 159 150
3 160 151 150
3 81 160 150
3 82 160 81
3 82 84 160
3 160 84 161
3 163 162 87
3 87 162 86
3 165 164 88
3 164 87 88
3 164 163 87
3 165 166 164
3 155 167 154
3 154 167 158
3 158 167 168
3 158 168 159
3 159 168 169
3 159 169 80
3 169 89 80
3 169 170 89
3 91 89 170
3 91 170 171
3 172 161 84
3 172 84 93
3 162 173 86
3 174 86 173
3 86 174 93
3 175 93 174
3 93 175 172
3 94 174 88
3 173 88 174
3 88 173 165
3 176 165 173
3 165 176 177
3 166 165 178
3 165 179 178
3 165 177 179
3 179 180 178
3 182 95 181
3 95 171 181
3 95 91 171
3 98 96 182
3 181 98 182
3 183 98 181
3 174 99 175
3 99 183 175
3 99 98 183
3 176 184 177
3 99 174 94
3 177 184 179
3 179 184 185
3 179 185 180
3 186 100 182
3 182 100 95
3 101 186 96
3 96 186 182
3 186 102 100
3 102 186 101
3 187 105 106
3 107 188 106
3 106 188 187
3 109 189 107
3 107 189 188
3 111 190 109
3 109 190 189
3 113 190 111
3 191 115 116
3 192 191 116
3 192 116 105
3 193 192 105
3 187 193 105
3 193 187 188
3 193 188 194
3 194 188 189
3 194 189 195
3 195 189 190
3 195 190 196
3 198 196 197
3 197 196 121
3 196 190 121
3 190 113 121
3 123 197 121
3 200 199 191
3 199 115 191
3 199 125 115
3 200 191 192
3 201 198 197
3 197 123 201
3 123 202 201
3 123 130 202
3 199 132 125
3 203 132 199
3 135 202 130
3 135 204 202
3 203 136 132
3 205 136 203
3 137 204 135
3 137 206 204
3 138 136 207
3 136 208 207
3 136 205 208
3 209 139 138
3 209 138 207
3 139 209 210
3 211 139 210
3 140 139 211
3 142 140 211
3 142 211 212
3 145 213 144
3 213 214 144
3 214 137 144
3 214 206 137
3 215 147 148
3 208 216 207
3 216 148 207
3 148 149 207
3 148 216 215
3 209 207 217
3 207 151 217
3 151 218 217
3 151 207 149
3 209 217 210
3 212 219 142
3 142 219 152
3 219 221 220
3 153 219 220
3 152 219 153
3 220 222 153
3 153 222 145
3 222 223 145
3 223 213 145
3 213 223 214
3 224 155 156
3 157 225 156
3 156 225 224
3 226 225 157
3 226 157 147
3 227 226 147
3 215 227 147
3 227 215 216
3 151 160 228
3 229 151 228
3 218 151 229
3 161 228 160
3 230 162 163
3 221 231 220
3 231 163 220
3 163 164 220
3 163 231 230
3 164 166 220
3 166 222 220
3 166 232 222
3 224 167 155
3 235 234 233
3 224 168 167
3 168 224 225
3 168 225 169
3 226 169 225
3 169 226 236
3 234 236 226
3 236 234 235
3 169 236 237
3 238 169 237
3 170 169 238
3 228 239 171
3 238 228 171
3 170 238 171
3 229 228 238
3 172 240 161
3 240 228 161
3 240 239 228
3 162 230 173
3 240 172 175
3 176 173 230
3 231 176 230
3 241 176 231
3 242 232 166
3 242 166 178
3 178 180 242
3 242 180 243
3 233 244 235
3 235 244 236
3 236 244 245
3 236 245 237
3 239 181 171
3 181 239 183
3 183 239 240
3 183 240 175
3 184 176 246
3 176 247 246
3 176 241 247
3 248 185 184
3 248 184 246
3 248 249 185
3 249 180 185
3 249 243 180
3 247 250 246
3 246 250 248
3 248 250 251
3 248 251 249
3 253 252 193
3 193 252 192
3 254 193 194
3 254 253 193
3 255 194 195
3 255 254 194
3 256 195 196
3 256 255 195
3 196 198 256
3 256 198 257
3 259 258 200
3 200 258 199
3 200 192 252
3 200 252 259
3 260 257 198
3 260 198 201
3 201 202 260
3 260 202 261
3 264 263 262
3 258 264 262
3 203 258 262
3 199 258 203
3 204 261 202
3 204 265 261
3 262 263 266
3 266 263 267
3 266 205 203
3 266 203 262
3 206 265 204
3 206 268 265
3 267 269 266
3 205 266 269
3 270 205 269
3 208 205 270
3 210 271 211
3 271 212 211
3 214 268 206
3 214 272 268
3 274 216 273
3 216 270 273
3 216 208 270
3 217 218 274
3 273 217 274
3 275 217 273
3 210 217 271
3 217 276 271
3 217 275 276
3 271 276 212
3 276 219 212
3 276 277 219
3 221 219 277
3 221 277 278
3 280 279 223
3 280 223 222
3 214 223 272
3 272 223 279
3 281 226 227
3 216 274 227
3 274 281 227
3 274 282 281
3 229 282 218
3 218 282 274
3 284 231 283
3 231 278 283
3 231 221 278
3 283 280 284
3 280 232 284
3 280 222 232
3 285 233 234
3 226 281 234
3 281 285 234
3 281 286 285
3 237 286 238
3 286 282 238
3 286 281 282
3 238 282 229
3 287 241 284
3 284 241 231
3 242 288 232
3 288 284 232
3 288 287 284
3 243 288 242
3 285 244 233
3 244 285 245
3 245 285 286
3 245 286 237
3 289 247 287
3 287 247 241
3 290 287 288
3 289 287 290
3 249 290 243
3 243 290 288
3 289 250 247
3 250 289 251
3 251 289 290
3 251 290 249
3 292 291 253
3 253 291 252
3 293 253 254
3 293 292 253
3 294 254 255
3 294 293 254
3 295 255 256
3 295 294 255
3 256 257 295
3 295 257 296
3 297 258 259
3 252 291 298
3 297 252 298
3 299 297 298
3 259 252 297
3 301 300 299
3 301 299 298
3 303 302 300
3 303 300 301
3 304 302 303
3 305 296 257
3 305 257 260
3 260 261 305
3 305 261 306
3 307 263 264
3 258 297 264
3 297 307 264
3 297 308 307
3 309 297 299
3 308 297 309
3 310 299 300
3 309 299 310
3 311 300 302
3 310 300 311
3 302 304 312
3 313 302 312
3 311 302 313
3 315 314 313
3 315 313 312
3 315 306 314
3 306 265 314
3 306 261 265
3 316 267 307
3 307 267 263
3 317 307 308
3 316 307 317
3 318 308 309
3 317 308 318
3 319 309 310
3 318 309 319
3 320 310 311
3 319 310 320
3 321 311 313
3 320 311 321
3 322 313 314
3 321 313 322
3 268 322 265
3 265 322 314
3 316 269 267
3 269 316 270
3 316 323 270
3 316 317 323
3 324 317 318
3 323 317 324
3 325 318 319
3 324 318 325
3 326 319 320
3 325 319 326
3 327 320 321
3 326 320 327
3 328 321 322
3 327 321 328
3 272 328 268
3 268 328 322
3 323 273 270
3 273 323 275
3 275 323 324
3 275 324 276
3 276 324 325
3 276 325 277
3 277 325 326
3 277 326 278
3 326 329 278
3 326 327 329
3 280 329 279
3 329 328 279
3 329 327 328
3 279 328 272
3 329 283 278
3 283 329 280
3 330 291 292
3 293 331 292
3 292 331 330
3 294 332 293
3 293 332 331
3 295 333 294
3 294 333 332
3 296 333 295
3 330 298 291
3 298 330 301
3 301 330 331
3 301 331 303
3 303 331 332
3 303 332 304
3 332 334 304
3 332 333 334
3 305 335 296
3 335 333 296
3 335 334 333
3 306 335 305
3 334 312 304
3 312 334 315
3 315 334 335
3 315 335 306
