ply
format ascii 1.0
element vertex 147
property float x
property float y
property float z
end_header
31.000 34.000 34.000
34.000 34.000 34.000
34.000 35.000 34.000
32.000 37.000 34.000
31.000 38.000 34.000
32.000 38.000 34.000
31.000 34.000 35.000
31.000 35.000 35.000
33.000 35.000 35.000
34.000 35.000 35.000
32.000 36.000 35.000
33.000 36.000 35.000
32.000 37.000 35.000
32.000 38.000 35.000
31.000 39.000 35.000
30.000 29.000 36.000
31.000 29.000 36.000
36.000 29.000 36.000
30.000 30.000 36.000
31.000 30.000 36.000
32.000 30.000 36.000
33.000 30.000 36.000
36.000 30.000 36.000
31.000 31.000 36.000
32.000 31.000 36.000
33.000 31.000 36.000
34.000 31.000 36.000
35.000 31.000 36.000
36.000 31.000 36.000
37.000 31.000 36.000
35.000 32.000 36.000
36.000 32.000 36.000
31.000 34.000 36.000
32.000 34.000 36.000
34.000 34.000 36.000
32.000 35.000 36.000
33.000 35.000 36.000
34.000 35.000 36.000
32.000 36.000 36.000
32.000 37.000 36.000
32.000 27.000 37.000
33.000 27.000 37.000
34.000 27.000 37.000
35.000 27.000 37.000
31.000 28.000 37.000
32.000 28.000 37.000
33.000 28.000 37.000
34.000 28.000 37.000
35.000 28.000 37.000
36.000 28.000 37.000
31.000 29.000 37.000
32.000 29.000 37.000
33.000 29.000 37.000
34.000 29.000 37.000
35.000 29.000 37.000
36.000 29.000 37.000
31.000 30.000 37.000
34.000 30.000 37.000
35.000 30.000 37.000
36.000 30.000 37.000
31.000 31.000 37.000
32.000 31.000 37.000
33.000 31.000 37.000
36.000 31.000 37.000
34.000 32.000 37.000
35.000 32.000 37.000
30.000 33.000 37.000
31.000 33.000 37.000
27.000 34.000 37.000
28.000 34.000 37.000
29.000 34.000 37.000
30.000 34.000 37.000
31.000 34.000 37.000
32.000 34.000 37.000
34.000 34.000 37.000
35.000 34.000 37.000
32.000 35.000 37.000
33.000 35.000 37.000
35.000 35.000 37.000
36.000 35.000 37.000
38.000 36.000 37.000
32.000 28.000 38.000
33.000 28.000 38.000
34.000 28.000 38.000
35.000 28.000 38.000
31.000 29.000 38.000
36.000 29.000 38.000
31.000 30.000 38.000
36.000 30.000 38.000
31.000 31.000 38.000
33.000 31.000 38.000
36.000 31.000 38.000
31.000 32.000 38.000
32.000 32.000 38.000
34.000 32.000 38.000
36.000 32.000 38.000
31.000 33.000 38.000
35.000 33.000 38.000
30.000 34.000 38.000
31.000 34.000 38.000
35.000 34.000 38.000
29.000 35.000 38.000
30.000 35.000 38.000
35.000 35.000 38.000
36.000 35.000 38.000
29.000 36.000 38.000
35.000 36.000 38.000
36.000 36.000 38.000
38.000 36.000 38.000
32.000 28.000 39.000
33.000 28.000 39.000
34.000 28.000 39.000
35.000 28.000 39.000
31.000 29.000 39.000
32.000 29.000 39.000
33.000 29.000 39.000
34.000 29.000 39.000
36.000 29.000 39.000
30.000 30.000 39.000
31.000 30.000 39.000
32.000 30.000 39.000
33.000 30.000 39.000
34.000 30.000 39.000
35.000 30.000 39.000
36.000 30.000 39.000
30.000 31.000 39.000
31.000 31.000 39.000
32.000 31.000 39.000
33.000 31.000 39.000
34.000 31.000 39.000
35.000 31.000 39.000
36.000 31.000 39.000
31.000 32.000 39.000
32.000 32.000 39.000
33.000 32.000 39.000
34.000 32.000 39.000
35.000 32.000 39.000
36.000 32.000 39.000
35.000 33.000 39.000
30.000 35.000 39.000
35.000 36.000 39.000
32.000 28.000 40.000
33.000 28.000 40.000
34.000 28.000 40.000
35.000 28.000 40.000
35.000 29.000 40.000
36.000 29.000 40.000
